<?xml version="1.0" encoding="UTF-8" standalone="no"?>
<svg
   xmlns:dc="http://purl.org/dc/elements/1.1/"
   xmlns:cc="http://creativecommons.org/ns#"
   xmlns:rdf="http://www.w3.org/1999/02/22-rdf-syntax-ns#"
   xmlns:svg="http://www.w3.org/2000/svg"
   xmlns="http://www.w3.org/2000/svg"
   xmlns:sodipodi="http://sodipodi.sourceforge.net/DTD/sodipodi-0.dtd"
   xmlns:inkscape="http://www.inkscape.org/namespaces/inkscape"
   version="1.0"
   width="67.709999mm"
   height="42.310001mm"
   id="svg2985"
   inkscape:version="0.48.2 r9819"
   sodipodi:docname="Igloo2.svg"
   inkscape:export-filename="C:\develop3\cryptosticky\work\images\Igloo2.png"
   inkscape:export-xdpi="192.97775"
   inkscape:export-ydpi="192.97775">
  <metadata
     id="metadata3089">
    <rdf:RDF>
      <cc:Work
         rdf:about="">
        <dc:format>image/svg+xml</dc:format>
        <dc:type
           rdf:resource="http://purl.org/dc/dcmitype/StillImage" />
        <dc:title></dc:title>
      </cc:Work>
    </rdf:RDF>
  </metadata>
  <sodipodi:namedview
     pagecolor="#ffffff"
     bordercolor="#666666"
     borderopacity="1"
     objecttolerance="10"
     gridtolerance="10"
     guidetolerance="10"
     inkscape:pageopacity="0"
     inkscape:pageshadow="2"
     inkscape:window-width="1400"
     inkscape:window-height="1030"
     id="namedview3087"
     showgrid="false"
     inkscape:zoom="4"
     inkscape:cx="87.58759"
     inkscape:cy="62.541398"
     inkscape:window-x="1352"
     inkscape:window-y="-8"
     inkscape:window-maximized="1"
     inkscape:current-layer="svg2985" />
  <defs
     id="defs2987" />
  <path
     inkscape:connector-curvature="0"
     id="path2993"
     d="m 171.32527,145.14898 -0.09,-0.70461 -0.075,-0.71932 -0.075,-0.7046 -0.09,-0.70462 -0.075,-0.68994 -0.075,-0.70461 -0.075,-0.70463 -0.06,-0.68994 -0.075,-0.70462 -0.075,-0.68993 -0.06,-0.70461 -0.075,-0.68994 -0.075,-0.68994 -0.06,-0.70462 -0.075,-0.68993 -0.06,-0.68994 0.35987,0.0734 0.40486,0.0587 0.44985,0.0441 0.49483,0.0294 0.53981,0.0147 0.62979,0.0147 0.68976,0.0147 0.76473,0 0.8697,0 0.95967,0.0147 1.07963,0 1.18459,0.0147 1.30455,0.0294 1.43951,0.0294 1.58945,0.044 1.72441,0.0588 0.44984,1.80558 0.32989,1.37988 0.23991,1.02757 0.14995,0.77801 0.045,0.32295 0.045,0.29359 0.015,0.26423 0.015,0.24955 0,0.51379 -0.03,0.58718 -1.04964,0.38166 -1.00465,0.367 -0.95967,0.3523 -0.92968,0.30827 -0.89969,0.30828 -0.8697,0.2789 -0.8697,0.26423 -0.83971,0.2202 -0.83971,0.22019 -0.85471,0.19084 -0.83971,0.16147 -0.8697,0.14679 -0.89969,0.11743 -0.91468,0.0881 -0.94468,0.0734 -0.98966,0.044 z"
     style="fill:#fdfdb5;fill-opacity:1;fill-rule:evenodd;stroke:#898f1f;stroke-width:0.9007917;stroke-opacity:0.62234042" />
  <path
     inkscape:connector-curvature="0"
     id="path2995"
     d="m 167.29735,144.2682 -0.82471,-0.29359 -0.80973,-0.29359 -0.80972,-0.30827 -0.80972,-0.32295 -0.80972,-0.33762 -0.79472,-0.33763 -0.77974,-0.35231 -0.79472,-0.38167 -0.76474,-0.38167 -0.76473,-0.39635 -0.76474,-0.39634 -0.73475,-0.42571 -0.73474,-0.44039 -0.71976,-0.44038 -0.70475,-0.46974 -0.68977,-0.46975 -0.67476,-0.48443 -0.65978,-0.4991 -0.64477,-0.51377 -0.61479,-0.54315 -0.61479,-0.54314 -0.5848,-0.55782 -0.5698,-0.57251 -0.53982,-0.58718 -0.52482,-0.60185 -0.49483,-0.61655 -0.47983,-0.63122 -0.44984,-0.6459 -0.41986,-0.66056 -0.40486,-0.68995 -0.37487,-0.68994 -0.34488,-0.70462 -0.03,-0.76332 -0.03,-0.74866 -0.03,-0.73398 -0.045,-0.74865 -0.03,-0.7193 -0.03,-0.73398 -0.03,-0.73398 -0.045,-0.71929 1.04964,0.41102 1.12461,0.46975 1.19959,0.51378 1.24457,0.57251 1.30455,0.60185 1.34953,0.63122 1.39452,0.67526 1.43951,0.67526 1.46949,0.70462 1.48449,0.70461 1.51448,0.71929 1.52947,0.70462 1.52947,0.68994 1.54447,0.67526 1.52947,0.66059 1.52948,0.63121 0,0.68994 0,0.68993 0,0.70461 0.015,0.68994 0,0.68995 0.015,0.70461 0.015,0.68993 0.015,0.70463 0,0.68994 0.015,0.70461 0.015,0.70462 0.015,0.68993 0.015,0.70462 0.03,0.70462 0.015,0.7193 0.015,0.70461 -0.38987,0.0587 -0.35988,0.0734 -0.35987,0.0588 -0.32989,0.0734 z"
     style="fill:#fdfdb5;fill-opacity:1;fill-rule:evenodd;stroke:#898f1f;stroke-width:0.9007917;stroke-opacity:0.62234042" />
  <path
     inkscape:connector-curvature="0"
     id="path2997"
     d="m 126.5264,126.91701 0,0.77802 0,0.77801 0,0.77802 0,0.77801 0,0.7927 0,0.77801 0,0.79269 0,0.7927 0,0.77801 0,0.79269 0,0.79271 0,0.79268 0,0.7927 0,0.7927 0,0.79268 0,0.7927 0,0.19084 0,0.22018 0,0.2202 0,0.24954 -0.80972,0.0588 -0.79473,0.0734 -0.79472,0.0734 -0.77973,0.0734 -0.77974,0.0734 -0.77973,0.0734 -0.77973,0.0881 -0.77973,0.10275 -0.67477,0 -0.67476,0 -0.67477,0 -0.67477,0 -0.67477,0 -0.67476,0 -0.67477,0 -0.67477,0 -0.67477,0 -0.67476,0 -0.67477,0 -0.67477,0 -0.67477,0 -0.67476,0 -0.67477,0 -0.67477,0 -0.37487,0 -0.37487,0 -0.35988,0 -0.37487,0 -0.37487,0 -0.37487,0 -0.35987,0 -0.37488,0 -0.79472,0 -0.79473,0 -0.79472,0 -0.79473,0 -0.79473,0 -0.77973,0 -0.79472,0 -0.79473,0 -0.779731,0 -0.794727,0 -0.779731,0 -0.779731,0 -0.794726,0 -0.779732,0 -0.779731,0 -0.764736,0 -0.839711,-0.11744 -0.824716,-0.11744 -0.824716,-0.10275 -0.824716,-0.11744 -0.824715,-0.10276 -0.824716,-0.10275 -0.824716,-0.10276 -0.824716,-0.10276 -0.824716,-0.10275 -0.809721,-0.10275 -0.824715,-0.10276 -0.824716,-0.10275 -0.809721,-0.10277 -0.809721,-0.10276 -0.824716,-0.0881 -0.809721,-0.10276 -0.194933,-1.37987 -0.179938,-1.3652 -0.149948,-1.33583 -0.119959,-1.33584 -0.08997,-1.32115 -0.05998,-1.30647 -0.02999,-1.2918 0,-1.29181 0.01499,-1.27712 0.05998,-1.27712 0.07497,-1.27711 0.104963,-1.26245 0.119959,-1.26244 0.149948,-1.27711 0.194933,-1.26244 0.194933,-1.26243 3.913651,0.3523 3.448812,0.30827 3.058946,0.27891 2.744054,0.24955 2.489143,0.20553 2.294209,0.19083 2.174251,0.16147 2.11427,0.1468 2.12927,0.14679 2.20424,0.13212 2.35419,0.13211 2.54912,0.13211 2.83402,0.13213 3.16391,0.16147 3.56877,0.16147 4.04861,0.19084 0.075,0.66058 0.06,0.66058 0.075,0.66056 0.075,0.66059 0.075,0.66058 0.09,0.66057 0.09,0.66058 0.09,0.66058 z"
     style="fill:#fdfdb5;fill-opacity:1;fill-rule:evenodd;stroke:#898f1f;stroke-width:0.9007917;stroke-opacity:0.62234042" />
  <path
     inkscape:connector-curvature="0"
     id="path2999"
     d="m 126.5264,140.47684 0,-0.65702 0,-0.65702 0,-0.65703 0,-0.65703 0,-0.65702 0,-0.65703 0,-0.65702 0,-0.64485 0,-0.65703 0,-0.65702 0,-0.64486 0,-0.65702 0,-0.64486 0,-0.64486 0,-0.64485 0,-0.64486 0.03,0.64486 0.045,0.64485 0.03,0.64486 0.03,0.64486 0.03,0.65702 0.045,0.64486 0.03,0.65702 0.045,0.65703 0.03,0.64485 0.045,0.65702 0.045,0.65703 0.045,0.65702 0.045,0.65703 0.045,0.65703 0.045,0.65702 0.045,0.65702 -0.17993,0 -0.16495,0 -0.14995,0 -0.13495,0 z"
     style="fill:#b5b5ad;fill-opacity:1;fill-rule:evenodd;stroke:none" />
  <path
     inkscape:connector-curvature="0"
     id="path3001"
     d="m 130.75494,139.24781 -0.075,-1.10096 -0.09,-1.11565 -0.09,-1.10097 -0.075,-1.11564 -0.09,-1.10096 -0.075,-1.10096 -0.09,-1.10096 -0.075,-1.11565 -0.075,-1.10097 -0.09,-1.10096 -0.075,-1.08628 -0.075,-1.10097 -0.075,-1.10095 -0.075,-1.10097 -0.06,-1.08629 -0.075,-1.08629 0.77973,-0.10275 0.77973,-0.10276 0.77973,-0.0881 0.77973,-0.0881 0.77973,-0.10276 0.79473,-0.0881 0.77973,-0.0881 0.79473,-0.0881 0.79472,-0.0734 0.77974,-0.0881 0.79472,-0.0881 0.79473,-0.0881 0.79472,-0.0734 0.79473,-0.0881 0.77973,-0.0881 0.79473,-0.0734 0.06,0.11744 0.075,0.19082 0.075,0.26423 0.09,0.33763 0.20993,0.82206 0.23992,1.04224 0.25491,1.18905 0.26991,1.32115 0.2849,1.40924 0.2849,1.45326 0.26991,1.45328 0.23992,1.43859 0.22492,1.35051 0.19493,1.26244 0.14995,1.10096 0.10496,0.92482 0.03,0.38167 0.015,0.32294 0,0.24956 -0.015,0.19083 -1.19958,0.24954 -1.06464,0.2202 -0.94467,0.19084 -0.85471,0.16147 -0.77973,0.1468 -0.71975,0.13211 -0.68976,0.11743 -0.67477,0.11744 -0.67477,0.0881 -0.71975,0.10276 -0.76474,0.10275 -0.82471,0.0881 -0.92968,0.10276 -1.04964,0.11744 -1.1696,0.11743 -1.33454,0.1468 z"
     style="fill:#fdfdb5;fill-opacity:1;fill-rule:evenodd;stroke:#898f1f;stroke-width:0.9007917;stroke-opacity:0.62234042" />
  <path
     inkscape:connector-curvature="0"
     id="path3003"
     d="m 76.398674,126.30048 -0.179938,2.90654 -0.119959,2.18725 -0.04498,0.85141 -0.02999,0.70461 -0.01499,0.58718 -0.01499,0.46975 0.01499,0.36699 0.01499,0.26424 0.02999,0.2055 0.04498,0.11744 0.02999,0.0588 0.02999,0.0294 0.02999,0.0294 0.02999,0.0147 0.08997,0.0147 0.08997,0 -0.02999,0.39634 -0.02999,0.39635 -0.04498,0.39635 -0.02999,0.39635 -0.02999,0.39634 -0.02999,0.39634 -0.04498,0.39635 -0.02999,0.39635 -2.369184,-0.52846 -2.369183,-0.54315 -2.369184,-0.54313 -2.339194,-0.55783 -2.354188,-0.55781 -2.3242,-0.55783 -2.324199,-0.5725 -2.294209,-0.5725 -2.29421,-0.58718 -2.279214,-0.60186 -2.26422,-0.60187 -2.249225,-0.60185 -2.219235,-0.61655 -2.219235,-0.63121 -2.189246,-0.63123 -2.159256,-0.63121 -1.094623,-0.52847 -1.094623,-0.52846 -1.094622,-0.52846 -1.094623,-0.52846 -1.094623,-0.52846 -1.079628,-0.52846 -1.079628,-0.52847 -1.094623,-0.52846 -1.079628,-0.52847 -1.079628,-0.52845 -1.079628,-0.52847 -1.079628,-0.52846 -1.094623,-0.52847 -1.079628,-0.52846 -1.079628,-0.52847 -1.079628,-0.52846 -0.01499,-1.36519 0,-1.3652 0.02999,-1.33583 0.05998,-1.32116 0.07497,-1.32115 0.08997,-1.30648 0.119958,-1.30648 0.149949,-1.29179 0.164943,-1.27712 0.194933,-1.26245 0.209927,-1.26243 0.224923,-1.26244 0.254912,-1.24776 0.269907,-1.23308 0.299897,-1.23308 0.299896,-1.233075 0.89969,0.543145 0.89969,0.51378 0.884696,0.51378 0.89969,0.51379 0.89969,0.4991 0.884695,0.48442 0.89969,0.48443 0.914684,0.46974 0.89969,0.46974 0.89969,0.45507 0.914685,0.45507 0.914685,0.44038 0.914685,0.44039 0.914685,0.42571 0.929679,0.4257 0.92968,0.4257 0.944674,0.41104 0.944675,0.41102 0.944674,0.41103 0.95967,0.39634 1.934333,0.77802 1.964323,0.76333 1.994313,0.74866 2.039297,0.73397 2.069287,0.73398 2.129267,0.71929 1.349535,0.26424 1.349535,0.26423 1.364529,0.26424 1.349535,0.26422 1.36453,0.26424 1.349535,0.26422 1.36453,0.26423 1.36453,0.26423 1.364529,0.26424 1.36453,0.26423 1.36453,0.26423 1.36453,0.26423 1.36453,0.26423 1.364529,0.26423 1.36453,0.26423 1.36453,0.26423 -0.05998,1.05692 -0.05998,1.05694 -0.04498,1.05693 -0.04499,1.05692 -0.04498,1.0716 -0.02999,1.07161 -0.04498,1.08629 -0.02999,1.08628 z"
     style="fill:#fdfdb5;fill-opacity:1;fill-rule:evenodd;stroke:#898f1f;stroke-width:0.9007917;stroke-opacity:0.62234042" />
  <path
     inkscape:connector-curvature="0"
     id="path3005"
     d="m 76.398674,129.52644 0,0.90037 0,0.90036 0,0.91253 0,0.90037 0,0.9247 0,0.91254 0,0.9247 0,0.9247 -0.08997,0 -0.08997,-0.0122 -0.02999,-0.0122 -0.02999,-0.0243 -0.02999,-0.0243 -0.02999,-0.0487 -0.04498,-0.0973 -0.02999,-0.17034 -0.01499,-0.21901 -0.01499,-0.30418 0.01499,-0.38934 0.01499,-0.48669 0.02999,-0.58402 0.04498,-0.70569 0.119959,-1.81291 0.179938,-2.40908 z"
     style="fill:#b5b5ad;fill-opacity:1;fill-rule:evenodd;stroke:none" />
  <path
     inkscape:connector-curvature="0"
     id="path3007"
     d="m 185.81156,119.10513 -0.06,0.77801 -0.075,0.77802 -0.06,0.77801 -0.06,0.77802 -0.06,0.79268 -0.06,0.77803 -0.06,0.79268 -0.045,0.77802 -0.06,0.7927 -0.045,0.79268 -0.06,0.7927 -0.045,0.79269 -0.06,0.79269 -0.045,0.79269 -0.06,0.7927 -0.045,0.79271 -0.88469,0 -0.8847,0.0147 -0.89969,0 -0.89969,0.0147 -0.89969,0.0147 -0.89969,0 -0.89969,0 -0.88469,-0.0294 -0.8847,-0.0294 -0.8697,-0.044 -0.8547,-0.0734 -0.83972,-0.0881 -0.41985,-0.0587 -0.40486,-0.0588 -0.40486,-0.0734 -0.40486,-0.0881 -0.38987,-0.0734 -0.38986,-0.10276 -0.37487,-0.10276 -0.37488,-0.10276 0.075,-1.32115 0.075,-1.33584 0.10497,-1.32115 0.10496,-1.33585 0.11996,-1.32115 0.13495,-1.32115 0.14995,-1.32116 0.14995,-1.30649 0.17994,-1.30646 0.19493,-1.29181 0.20993,-1.29179 0.22492,-1.27713 0.23992,-1.26243 0.25491,-1.24775 0.26991,-1.23309 0.29989,-1.21839 0.28491,0.0147 0.31489,0.0147 0.29989,0.0294 0.32989,0.044 0.32989,0.0587 0.34488,0.0588 0.34488,0.0734 0.35987,0.0734 0.73475,0.17615 0.74974,0.20552 0.77973,0.23487 0.80973,0.23487 0.80972,0.24955 0.82471,0.26423 0.82472,0.24955 0.82471,0.24955 0.82472,0.24957 0.82472,0.22018 0.82471,0.20551 0.79473,0.17616 -0.06,0.73398 -0.06,0.73396 -0.045,0.71931 -0.045,0.73398 -0.045,0.74864 -0.03,0.73398 -0.045,0.74866 -0.03,0.76333 z"
     style="fill:#fdfdb5;fill-opacity:1;fill-rule:evenodd;stroke:#898f1f;stroke-width:0.9007917;stroke-opacity:0.62234042" />
  <path
     inkscape:connector-curvature="0"
     id="path3009"
     d="m 167.29735,128.94278 -1.48449,-0.63121 -1.30455,-0.54315 -1.16959,-0.51377 -1.07963,-0.45508 -0.98966,-0.44037 -0.94468,-0.42572 -0.92968,-0.44037 -0.94467,-0.46975 -0.98966,-0.48443 -1.06463,-0.55782 -1.1696,-0.60186 -1.28955,-0.68995 -1.4695,-0.79268 -1.66442,-0.89545 -1.88935,-1.02757 -2.14426,-1.15969 -0.03,-1.08629 -0.03,-1.05691 0,-1.01288 0.03,-0.99822 0.03,-0.95416 0.06,-0.95418 0.06,-0.9248 0.09,-0.92482 0.10497,-0.91012 0.10496,-0.91013 0.13495,-0.92481 0.13496,-0.92481 0.14995,-0.92481 0.16494,-0.95416 0.16494,-0.96886 0.17994,-0.9982 0.25491,0.044 0.2999,0.0587 0.34488,0.0734 0.38987,0.10276 0.89969,0.24955 1.04963,0.30827 1.1846,0.38166 1.30455,0.41104 1.42451,0.46974 1.49948,0.4991 1.58945,0.51378 1.64943,0.52846 1.69442,0.54315 1.7244,0.54315 1.73941,0.52846 1.7394,0.51378 1.7394,0.48442 1.70941,0.44039 0.015,0.17616 0,0.22019 0,0.24955 -0.015,0.29358 -0.06,0.70462 -0.10497,0.83674 -0.13495,0.96884 -0.14995,1.08629 -0.17994,1.17436 -0.17993,1.27712 -0.19494,1.35052 -0.20992,1.40922 -0.19494,1.46796 -0.19493,1.49732 -0.16494,1.52666 -0.16495,1.54135 -0.11995,1.55603 -0.10497,1.52667 -0.25491,0 -0.22492,0 -0.22493,0 -0.19493,0 z"
     style="fill:#fdfdb5;fill-opacity:1;fill-rule:evenodd;stroke:#898f1f;stroke-width:0.9007917;stroke-opacity:0.62234042" />
  <path
     inkscape:connector-curvature="0"
     id="path3011"
     d="m 223.72291,126.65278 -0.015,-1.24776 -0.045,-1.23308 -0.045,-1.20372 -0.075,-1.20371 -0.10496,-1.18905 -0.10497,-1.15967 -0.13495,-1.15969 -0.13495,-1.15968 -0.14995,-1.13032 -0.14995,-1.13033 -0.16494,-1.13032 -0.16495,-1.11564 -0.17994,-1.11565 -0.16494,-1.11564 -0.17994,-1.10097 -0.16494,-1.11564 0.20993,-0.19083 0.22492,-0.24956 0.26991,-0.29358 0.2849,-0.32296 0.62978,-0.74865 0.68976,-0.85141 0.76474,-0.93949 0.77973,-0.99821 0.80972,-1.02757 0.80972,-1.02756 0.79473,-1.01289 0.76474,-0.968846 0.71975,-0.91013 0.65977,-0.792695 0.56981,-0.675256 0.47983,-0.543143 0.20993,-0.190834 0.16494,-0.161475 0.13495,-0.102756 0.10497,-0.05872 0.70476,1.952375 0.65977,1.84962 0.29989,0.89545 0.2999,0.88077 0.26991,0.85141 0.25491,0.83674 0.22492,0.82204 0.19494,0.82206 0.17993,0.79269 0.14995,0.7927 0.13496,0.77801 0.09,0.77801 0.06,0.76335 0.015,0.76332 -0.015,0.76335 -0.045,0.76332 -0.09,0.76334 -0.13495,0.74866 -0.16495,0.76334 -0.22492,0.77801 -0.26991,0.77801 -0.29989,0.77801 -0.37487,0.7927 -0.40486,0.80738 -0.47984,0.80737 -0.50982,0.83674 -0.5848,0.83672 -0.64478,0.86609 -0.68976,0.86609 -0.76474,0.91014 -1.37952,1.15967 -1.04964,0.88077 -0.41986,0.35232 -0.37487,0.29358 -0.32988,0.26424 -0.2999,0.2055 -0.26991,0.17616 -0.23991,0.1468 -0.23992,0.13211 -0.23992,0.11744 -0.49483,0.19083 -0.59979,0.22019 z"
     style="fill:#fdfdb5;fill-opacity:1;fill-rule:evenodd;stroke:#898f1f;stroke-width:0.9007917;stroke-opacity:0.62234042" />
  <path
     inkscape:connector-curvature="0"
     id="path3013"
     d="m 220.88271,117.50187 0,1.05754 0,1.07285 0,1.07288 0,1.07284 0,1.05755 0,1.07285 0,1.07285 0,1.07287 -0.37487,0.0307 -0.40486,0.0153 -0.40486,-0.0153 -0.43485,-0.0613 -0.44985,-0.0766 -0.46484,-0.10728 -0.47983,-0.13795 -0.49483,-0.15326 -0.50983,-0.1686 -0.50982,-0.19924 -0.52482,-0.19924 -0.53981,-0.2299 -1.07963,-0.49046 -1.07963,-0.5211 -1.09462,-0.55175 -1.07963,-0.55176 -1.06463,-0.55176 -1.01965,-0.5211 -0.98966,-0.49045 -0.92968,-0.44448 -0.43485,-0.18391 -0.41986,-0.18393 -0.40486,-0.15326 -0.38986,-0.1226 0.015,-0.64372 0.015,-0.56708 0.015,-0.52111 0,-0.47513 -0.015,-0.47512 -0.015,-0.49044 -0.03,-0.50579 -0.045,-0.53643 -0.06,-0.59773 -0.075,-0.67437 -0.09,-0.78166 -0.11996,-0.87361 -0.13496,-1.01154 -0.14995,-1.16484 -0.17993,-1.31809 -0.20993,-1.51732 0.89969,0.092 0.89969,0.092 0.89969,0.092 0.89969,0.092 0.89969,0.092 0.89969,0.092 0.91468,0.10729 0.89969,0.092 0.91469,0.10729 0.89969,0.092 0.91468,0.10728 0.91469,0.10729 0.89969,0.092 0.91468,0.10728 0.91469,0.1073 0.91468,0.092 0.40486,1.16481 0.32989,0.93492 0.25491,0.79699 0.22492,0.73568 0.19494,0.8123 0.20992,0.95026 0.23992,1.18014 0.2999,1.53264 z"
     style="fill:#fdfdb5;fill-opacity:1;fill-rule:evenodd;stroke:#898f1f;stroke-width:0.92043042;stroke-opacity:0.62234042" />
  <path
     inkscape:connector-curvature="0"
     id="path3017"
     d="m 107.90282,108.67037 0.015,-1.40923 0.015,-1.42392 0.015,-1.40923 0.015,-1.42391 0.03,-1.40924 0.015,-1.40923 0.015,-1.409231 0.03,-1.409235 0.015,-1.409234 0.015,-1.409233 0.03,-1.394554 0.03,-1.409234 0.03,-1.409234 0.03,-1.409234 0.03,-1.394554 0.03,-1.409233 0.92968,-0.02936 0.92968,-0.02937 0.91469,-0.02936 0.92968,-0.02937 0.92968,-0.02936 0.92968,-0.01467 0.92968,-0.02936 0.94467,-0.01467 0.92968,-0.01467 0.92968,-0.02937 0.92968,-0.01467 0.94467,-0.01468 0.94468,-0.01467 0.92968,-0.02936 0.94467,-0.01467 0.94468,-0.01467 0.92968,-0.102757 0.92968,-0.08808 0.92968,-0.102756 0.92968,-0.102757 0.91468,-0.102758 0.92968,-0.08808 0.92968,-0.102757 0.92968,-0.102756 0.92968,-0.102756 0.92968,-0.08808 0.92968,-0.102755 0.92968,-0.102757 0.92968,-0.102757 0.91468,-0.08808 0.92968,-0.102758 0.92968,-0.102757 2.83403,-0.689936 2.48914,-0.616541 2.15925,-0.528461 1.85936,-0.455066 1.57446,-0.381667 1.33454,-0.30827 1.09462,-0.264231 0.91469,-0.205514 0.73475,-0.146795 0.5698,-0.117436 0.46484,-0.07339 0.35987,-0.04404 0.28491,-0.01467 0.25491,0.01467 0.20993,0.01467 0.23991,0.02937 -0.65977,1.15968 -0.62978,1.145002 -0.59979,1.130324 -0.5998,1.115643 -0.5698,1.100964 -0.56981,1.100964 -0.53981,1.100963 -0.50982,1.086285 -0.50983,1.071605 -0.49483,1.086284 -0.46484,1.071606 -0.46484,1.071604 -0.43485,1.071605 -0.41985,1.086284 -0.41986,1.071605 -0.38986,1.086285 -0.37487,1.086283 -0.35988,1.100958 -0.35988,1.10097 -0.32988,1.11564 -0.31489,1.11564 -0.3149,1.14501 -0.2849,1.145 -0.2849,1.17436 -0.26991,1.17436 -0.25491,1.20372 -0.23992,1.21841 -0.22492,1.23306 -0.22492,1.26245 -0.20993,1.2918 -0.17994,1.30648 -0.19493,1.33583 -0.65977,0.0588 -0.64478,0.0734 -0.65977,0.0588 -0.65978,0.0734 -0.65977,0.0588 -0.65977,0.0734 -0.65977,0.0734 -0.65978,0.0587 -0.65977,0.0734 -0.65977,0.0734 -0.64478,0.0734 -0.65977,0.0734 -0.65977,0.0734 -0.65978,0.0881 -0.65977,0.0734 -0.65977,0.0881 -0.13496,0 -0.13495,0 -0.13495,0 -0.13496,0 -1.06463,0 -1.04964,0 -1.06463,0 -1.04964,0 -1.06463,0 -1.04964,0 -1.04964,0 -1.04964,0 -1.04964,0 -1.04963,0 -1.04964,0 -1.04964,0 -1.04964,0 -1.04964,0 -1.03464,0 -1.04964,0 -0.19493,0 -0.14995,0 -0.14995,0 -0.13495,0 -0.64478,0 -0.64478,0 -0.62978,0 -0.62978,0 -0.62979,0 -0.62978,0 -0.61479,0 -0.61479,0 -0.16494,-1.18905 -0.17994,-1.18904 -0.16494,-1.18903 -0.14995,-1.18905 -0.16494,-1.17436 -0.14995,-1.17436 -0.14995,-1.15969 -0.13495,-1.17436 z"
     style="fill:#fdfdb5;fill-opacity:1;fill-rule:evenodd;stroke:#898f1f;stroke-width:0.9007917;stroke-opacity:0.62234042" />
  <path
     inkscape:connector-curvature="0"
     id="path3019"
     d="m 90.808709,85.241862 0.824715,0.01468 0.824716,0.01467 0.824716,0.02936 0.824716,0.01467 0.824716,0.01467 0.824715,0.01467 0.824716,0.01467 0.839711,0.01467 0.824716,0.01467 0.824716,0.01467 0.824715,0.02937 0.824713,0.01467 0.82472,0.01467 0.82471,0.01467 0.83972,0.01467 0.82471,0.01467 0.06,0.352308 0.075,0.366989 0.06,0.381666 0.075,0.396347 0,1.321158 0,1.321156 0,1.321157 0,1.321156 0,1.321156 0,1.321157 0,1.321156 0,1.321158 0,1.321155 0,1.321159 0,1.32115 0,1.32115 0,1.32116 0,1.32116 0,1.32116 0,1.32115 0.34488,2.45147 0.26991,1.86431 0.17993,1.37987 0.10497,0.99821 0.03,0.39635 0.03,0.33762 0,0.29359 -0.015,0.27892 -0.045,0.51378 -0.09,0.5725 -0.34488,0.13212 -0.32989,0.13212 -0.34488,0.13211 -0.32989,0.13211 -3.50879,-0.39634 -3.478798,-0.41103 -3.463806,-0.39634 -3.448812,-0.4257 -3.418822,-0.42572 -3.418822,-0.45507 -1.694416,-0.23487 -1.694416,-0.23487 -1.694416,-0.24955 -1.679421,-0.24954 -1.694417,-0.26424 -1.679421,-0.2789 -1.679421,-0.2789 -1.664427,-0.29361 -1.664426,-0.30827 -1.664427,-0.30827 -1.664426,-0.32295 -1.649432,-0.33764 -1.664426,-0.3523 -1.649432,-0.36699 -1.649431,-0.38167 -1.634437,-0.38167 -1.634437,-0.41101 -1.649432,-0.42571 -1.634436,-0.44038 -1.619442,-0.45507 0.01499,-0.91013 0.02999,-0.91012 0.04498,-0.89546 0.04498,-0.89545 0.104964,-1.77622 0.149948,-1.74686 0.164944,-1.746868 0.179938,-1.717503 0.224922,-1.717503 0.224923,-1.688146 0.254912,-1.702823 0.269907,-1.688145 0.284901,-1.688144 0.299897,-1.688145 0.314892,-1.688145 0.329886,-1.688144 0.329886,-1.702824 0.329887,-1.717504 2.249225,0.29359 2.264219,0.308271 2.26422,0.29359 2.279215,0.29359 2.294209,0.293591 2.309204,0.29359 2.3242,0.278911 2.324199,0.27891 2.339194,0.264232 2.369183,0.264231 2.369184,0.249553 2.384178,0.234871 2.384179,0.220192 2.414168,0.205515 2.429163,0.190833 2.444158,0.176155 z"
     style="fill:#fdfdb5;fill-opacity:1;fill-rule:evenodd;stroke:#898f1f;stroke-width:0.9007917;stroke-opacity:0.62234042" />
  <path
     inkscape:connector-curvature="0"
     id="path3021"
     d="m 17.903831,117.22853 -1.664427,-1.07161 -1.559463,-1.02755 -1.439503,-0.99821 -1.334541,-0.96886 -1.214581,-0.92482 -1.1246126,-0.92479 -1.0196486,-0.88078 -0.9146848,-0.88076 -0.8397107,-0.86609 -0.7197519,-0.8661 -0.6597727,-0.85141 -0.5548088,-0.85141 -0.4798347,-0.8661 -0.3898656,-0.86609 -0.3298863,-0.88077 -0.2399174,-0.91012 -0.179938,-0.91014 -0.1049638,-0.95417 -0.044984,-0.968844 0.014995,-0.998208 0.074974,-1.042245 0.1349535,-1.086285 0.179938,-1.130322 0.2399173,-1.174361 0.2849018,-1.233081 0.3148915,-1.277117 0.359876,-1.350516 0.4048605,-1.409234 0.89969,-3.038659 1.0196486,-3.332251 0.7497417,0.866091 0.7647365,0.866092 0.7947261,0.866091 0.7947254,0.866091 0.824716,0.880771 0.824716,0.880771 0.854705,0.880772 0.869701,0.880771 0.884695,0.880771 0.89969,0.880771 0.929679,0.89545 0.92968,0.880772 0.959669,0.895451 0.974666,0.89545 0.974664,0.89545 1.004654,0.880772 0,0.557821 -0.01499,0.557823 -0.01499,0.5725 -0.02999,0.587181 -0.08997,1.203721 -0.104964,1.24776 -0.134953,1.26243 -0.149948,1.2918 -0.164943,1.32116 -0.179938,1.32116 -0.179938,1.33583 -0.194933,1.35052 -0.179938,1.33584 -0.194932,1.33583 -0.164944,1.32116 -0.164943,1.30647 -0.149948,1.27713 -0.134953,1.26243 -0.254913,0 -0.224922,0 -0.209928,0 -0.209927,0 z"
     style="fill:#fdfdb5;fill-opacity:1;fill-rule:evenodd;stroke:#898f1f;stroke-width:0.9007917;stroke-opacity:0.62234042" />
  <path
     inkscape:connector-curvature="0"
     id="path3023"
     d="m 185.16238,111.30552 -1.21458,-0.26424 -1.10961,-0.24955 -1.03465,-0.24956 -0.94467,-0.23486 -0.85471,-0.23488 -0.77973,-0.23487 -0.68976,-0.23487 -0.62978,-0.23488 -0.53982,-0.24954 -0.47983,-0.24956 -0.40486,-0.24955 -0.32989,-0.26423 -0.26991,-0.27891 -0.20993,-0.29359 -0.13495,-0.30827 -0.09,-0.33763 -0.03,-0.35231 0.015,-0.36699 0.075,-0.41102 0.11996,-0.42571 0.16494,-0.45506 0.22493,-0.49911 0.25491,-0.51378 0.2849,-0.57251 0.70476,-1.23307 0.80972,-1.40924 0.94467,-1.614745 1.01965,-1.805581 0.83971,-1.042245 0.79473,-1.012886 0.38986,-0.484424 0.38987,-0.484425 0.38987,-0.469745 0.38986,-0.455064 0.40486,-0.440387 0.40486,-0.425704 0.43485,-0.425707 0.44985,-0.396346 0.22492,-0.190834 0.23992,-0.190834 0.23991,-0.176155 0.25492,-0.176153 0.25491,-0.176155 0.26991,-0.176154 0.2699,-0.161475 0.2849,-0.161474 1.1696,2.025773 0.98966,1.688144 0.43485,0.748655 0.37487,0.675258 0.34488,0.631221 0.2999,0.5725 0.25491,0.528462 0.20993,0.484425 0.17994,0.469744 0.13495,0.425707 0.09,0.411027 0.06,0.396345 0.03,0.396348 -0.015,0.396344 -0.045,0.39635 -0.09,0.39635 -0.11996,0.42571 -0.14995,0.45506 -0.17994,0.46974 -0.22492,0.51379 -0.23991,0.54314 -0.28491,0.60186 -0.64477,1.3652 -0.74975,1.62942 -0.41985,0.92481 -0.44985,1.01289 -0.46484,1.10096 -0.49483,1.18905 -0.46484,0 -0.46484,0 -0.44984,0 -0.41986,0 z"
     style="fill:#fdfdb5;fill-opacity:1;fill-rule:evenodd;stroke:#898f1f;stroke-width:0.9007917;stroke-opacity:0.62234042" />
  <path
     inkscape:connector-curvature="0"
     id="path3025"
     d="m 107.90282,114.91374 0,-3.33379 0,-2.93227 0,-2.53076 0,-2.17791 0.015,-1.83724 0,-1.53305 0.015,-1.253214 0.015,-1.00987 0.015,-0.778696 0.03,-0.596188 0.03,-0.413682 0.03,-0.279843 0.015,-0.09734 0.03,-0.08517 0.015,-0.04867 0.03,-0.0365 0.03,-0.02433 0.03,0 0.03,-0.01216 0.03,0 0,0.121672 0,0.170339 -0.03,1.168043 -0.03,1.155876 -0.03,1.168042 -0.03,1.168043 -0.03,1.16804 -0.03,1.15588 -0.015,1.16804 -0.015,1.16804 -0.03,1.16805 -0.015,1.16804 -0.015,1.16804 -0.03,1.16805 -0.015,1.18021 -0.015,1.16804 -0.015,1.18021 -0.015,1.16804 z"
     style="fill:#adada5;fill-opacity:1;fill-rule:evenodd;stroke:none" />
  <path
     inkscape:connector-curvature="0"
     id="path3027"
     d="m 169.72651,107.26114 -1.90434,-0.63122 -1.67942,-0.55782 -1.48449,-0.4991 -1.31954,-0.45507 -1.1696,-0.39635 -1.06463,-0.38166 -0.98966,-0.35231 -0.92968,-0.33763 -0.91469,-0.35231 -0.91468,-0.35231 -0.94468,-0.38166 -1.00465,-0.41104 -1.09462,-0.45506 -1.21459,-0.51378 -1.36452,-0.5725 -1.52948,-0.660581 0.015,-0.58718 0.045,-0.601861 0.075,-0.61654 0.11995,-0.631218 0.14995,-0.645899 0.16495,-0.6459 0.19493,-0.645899 0.22492,-0.660577 0.23992,-0.660579 0.26991,-0.675257 0.2849,-0.675259 0.31489,-0.660578 0.31489,-0.675258 0.34488,-0.675256 0.35988,-0.675259 0.37487,-0.675258 0.37487,-0.660578 0.40486,-0.660578 0.40486,-0.645899 0.40486,-0.645899 0.41986,-0.645899 0.41985,-0.63122 0.43485,-0.616538 0.43485,-0.60186 0.51468,-1.265593 c 1.92067,-6.715165 4.28397,-4.806168 7.43084,-2.969608 l 2.83577,1.328662 0.73474,0.205513 0.73475,0.205513 1.48449,0.440386 1.48449,0.469745 1.46949,0.484423 1.48449,0.513783 1.48449,0.513784 1.48449,0.528462 1.49948,0.543141 1.48449,0.528464 1.49948,0.528462 1.49948,0.513784 -0.10496,0.234872 -0.13495,0.205513 -0.16495,0.234872 -0.17993,0.234872 -0.49483,0.587181 -0.65978,0.792694 -0.41985,0.499104 -0.46484,0.587181 -0.53982,0.689937 -0.59979,0.792693 -0.67477,0.910131 -0.73474,1.042246 -0.83971,1.189042 -0.91469,1.335835 -0.35987,0.675257 -0.34489,0.689938 -0.35987,0.675258 -0.35988,0.675258 -0.34488,0.675257 -0.35987,0.675258 -0.34489,0.68993 -0.35987,0.67526 -0.35988,0.68993 -0.34488,0.67526 -0.35988,0.68994 -0.35987,0.67526 -0.34488,0.68993 -0.35988,0.68995 -0.35987,0.68993 -0.34489,0.68994 -0.47983,0 -0.44985,0 -0.44984,0 -0.41986,0 z"
     style="fill:#fdfdb5;fill-opacity:1;fill-rule:evenodd;stroke:#898f1f;stroke-width:0.9007917;stroke-opacity:0.62234042"
     sodipodi:nodetypes="ccccccccccccccccccccccccccccccccccccccccccccccccccccccccccccccccccccccccccccccccccccccccccc" />
  <path
     inkscape:connector-curvature="0"
     id="path3029"
     d="m 44.909525,106.90883 -0.959669,-0.46974 -1.049639,-0.52846 -1.124612,-0.57251 -1.199587,-0.63121 -1.259566,-0.67526 -1.319545,-0.7193 -1.36453,-0.77801 -1.409514,-0.7927 -1.439504,-0.85141 -1.469494,-0.88077 -1.484488,-0.910132 -1.499484,-0.95417 L 27.83041,97.161631 26.330927,96.163423 24.861433,95.135857 23.391939,94.078932 21.96743,93.007327 20.572911,91.906364 19.223376,90.790721 17.918825,89.675077 16.674254,88.530075 15.504657,87.385072 14.410035,86.22539 13.390386,85.065708 12.475701,83.891347 11.63599,82.731665 10.916238,81.557303 10.316445,80.397622 9.8366104,79.23794 9.4767345,78.092938 9.251812,76.947936 9.176838,75.817612 l 0.959669,-1.864299 0.824716,-1.629426 0.734747,-1.423913 0.629783,-1.233079 0.554809,-1.071605 0.479834,-0.91013 0.404861,-0.778015 0.359876,-0.675258 0.314891,-0.5725 0.299897,-0.499105 0.254912,-0.455065 0.254912,-0.411026 0.254912,-0.396347 0.269907,-0.396347 0.284902,-0.425706 0.314892,-0.469745 0.08997,0.02937 0.07497,0.05872 0.104964,0.05871 0.104963,0.08808 0.239918,0.205515 0.269907,0.27891 0.644778,0.704617 0.794726,0.910129 0.929679,1.071605 1.079628,1.20372 0.584799,0.6459 0.644778,0.660579 0.659772,0.689936 0.704757,0.704617 1.529473,0.822053 1.514479,0.807373 1.529473,0.778015 1.529472,0.778015 0.764737,0.366987 0.779731,0.366988 0.779732,0.366988 0.779731,0.366988 0.794726,0.35231 0.779731,0.337627 0.809721,0.337629 0.794727,0.337629 0.809721,0.30827 0.824715,0.32295 0.824716,0.308269 0.839711,0.293591 0.83971,0.29359 0.854706,0.278911 0.854705,0.264231 0.869701,0.264231 0.884695,0.249553 0.884695,0.234872 0.89969,0.234872 0.914685,0.220192 0.929679,0.205514 0.92968,0.190834 0.959669,0.176154 0.95967,0.176154 -0.299897,1.644106 -0.299897,1.629427 -0.284901,1.644106 -0.284902,1.644105 -0.284902,1.658786 -0.254912,1.658785 -0.254912,1.658786 -0.239918,1.673464 -0.239917,1.688145 -0.209928,1.688145 -0.194933,1.702824 -0.194932,1.702823 -0.164944,1.717514 -0.149948,1.74686 -0.134953,1.74686 -0.104964,1.74687 -0.344881,0 -0.329887,0 -0.299896,0 -0.284902,0 z"
     style="fill:#fdfdb5;fill-opacity:1;fill-rule:evenodd;stroke:#898f1f;stroke-width:0.9007917;stroke-opacity:0.62234042" />
  <path
     inkscape:connector-curvature="0"
     id="path3031"
     d="m 216.8729,106.70854 -1.18459,-0.13273 -1.27456,-0.11616 -1.36453,-0.13274 -1.39452,-0.14932 -0.70476,-0.083 -0.71975,-0.0996 -0.70476,-0.0996 -0.70475,-0.11615 -0.68977,-0.13273 -0.67476,-0.14934 -0.65978,-0.18251 -0.64477,-0.19912 -0.61479,-0.21569 -0.5848,-0.2323 -0.55481,-0.28207 -0.52482,-0.29865 -0.47983,-0.31527 -0.43485,-0.36503 -0.40486,-0.39822 -0.34489,-0.43141 -0.2849,-0.48117 -0.23991,-0.51437 -0.17994,-0.54754 -0.10497,-0.59733 -0.045,-0.647104 0.03,-0.696881 0.09,-0.746658 0.17994,-0.796434 0.64477,-0.298664 0.62979,-0.248886 0.64477,-0.232295 0.62979,-0.182516 0.61479,-0.149331 0.62978,-0.116146 0.59979,-0.06637 0.61479,-0.03319 0.59979,0 0.5998,0.03319 0.5848,0.06637 0.58479,0.116146 0.56981,0.149331 0.55481,0.182516 0.55481,0.215702 0.53981,0.248886 0.53981,0.28207 0.52482,0.331849 0.50983,0.34844 0.49483,0.398217 0.47983,0.431402 0.47984,0.464588 0.46484,0.497772 0.44984,0.530966 0.41986,0.56413 0.41985,0.61392 0.40486,0.63051 0.38987,0.68029 0.37487,0.69689 0.35987,0.73006 0.32989,0.77984 0.32989,0.79643 -0.34488,0.14934 -0.32989,0.16591 -0.34488,0.18253 -0.32989,0.1991 z"
     style="fill:#fdfdb5;fill-opacity:1;fill-rule:evenodd;stroke:#898f1f;stroke-width:0.95768589;stroke-opacity:0.62234042" />
  <path
     inkscape:connector-curvature="0"
     id="path3033"
     d="m 220.12415,104.61883 -0.14995,-0.45507 -0.14995,-0.44039 -0.16494,-0.4257 -0.17994,-0.41103 -0.19493,-0.39635 -0.20993,-0.39634 -0.20993,-0.38167 -0.22492,-0.36699 -0.22492,-0.35231 -0.23992,-0.3523 -0.25491,-0.33763 -0.25491,-0.322952 -0.26991,-0.322949 -0.26991,-0.30827 -0.26991,-0.308269 -0.2849,-0.293591 -0.5848,-0.572501 -0.59979,-0.557822 -0.61479,-0.528463 -0.62978,-0.513783 -1.24457,-0.998208 -1.22958,-0.998207 0.22493,-2.084491 0.20992,-1.849619 0.17994,-1.600067 0.14995,-1.379875 0.13495,-1.20372 0.10497,-1.027567 0.09,-0.88077 0.075,-0.763335 0.045,-0.6459 0.03,-0.5725 0.03,-0.513784 0.015,-0.484423 0,-0.455066 -0.015,-0.469744 0,-0.499104 -0.015,-0.543143 0.82471,0.176156 0.79473,0.176154 0.73475,0.176153 0.71975,0.176154 0.67477,0.176155 0.64477,0.190833 0.61479,0.176155 0.5848,0.190834 0.55481,0.205513 0.52482,0.205513 0.50982,0.220192 0.49483,0.220193 0.47984,0.249553 0.44984,0.249552 0.43485,0.26423 0.43485,0.293591 0.41986,0.308269 0.40486,0.322949 0.40486,0.352309 0.40486,0.366988 0.40486,0.396347 0.40486,0.425706 0.40486,0.440386 0.40486,0.484424 0.41986,0.499104 0.43485,0.543141 0.43485,0.572502 0.44984,0.60186 0.95967,1.321158 1.03465,1.467951 -0.015,0.249551 -0.06,0.29359 -0.075,0.32295 -0.10497,0.366988 -0.13495,0.396347 -0.16494,0.425706 -0.19494,0.440385 -0.20992,0.484425 -0.22493,0.499103 -0.25491,0.513783 -0.2849,0.528462 -0.2849,0.543143 -0.31489,0.543142 -0.3149,0.557822 -0.32988,0.557822 -0.34488,0.557822 -0.35988,0.557821 -0.37487,0.543142 -0.37487,0.528463 -0.37487,0.528461 -0.38987,0.51378 -0.37487,0.48443 -0.38986,0.45507 -0.38987,0.44038 -0.38986,0.41102 -0.37488,0.38168 -0.38986,0.3523 -0.37487,0.30827 -0.35988,0.26423 -0.35987,0.22019 -0.34489,0.17616 -0.32988,0.11744 z"
     style="fill:#fdfdb5;fill-opacity:1;fill-rule:evenodd;stroke:#898f1f;stroke-width:0.9007917;stroke-opacity:0.62234042" />
  <path
     inkscape:connector-curvature="0"
     id="path3035"
     d="m 194.37547,96.691886 -0.94679,-1.174362 -0.99662,-1.218399 -0.51492,-0.616539 -0.49831,-0.616541 -0.49832,-0.631219 -0.4817,-0.616539 -0.44847,-0.61654 -0.43187,-0.631219 -0.19932,-0.308271 -0.18272,-0.308269 -0.18271,-0.293591 -0.16611,-0.308269 -0.14949,-0.30827 -0.14949,-0.293591 -0.13289,-0.29359 -0.0996,-0.29359 -0.0998,-0.293591 -0.0831,-0.29359 -0.0664,-0.29359 -0.0499,-0.278911 1.279,-0.851413 1.279,-0.807373 0.63119,-0.396347 0.61459,-0.366988 0.63119,-0.366987 0.63119,-0.352309 0.6312,-0.33763 0.63119,-0.337627 0.6312,-0.308272 0.63118,-0.293588 0.64781,-0.293591 0.64781,-0.264232 0.64781,-0.26423 0.64779,-0.234873 0.66442,-0.234873 0.66441,-0.205513 0.66441,-0.205513 0.69765,-0.176154 0.68101,-0.161475 0.69764,-0.161475 0.71425,-0.117436 0.73085,-0.117436 0.73085,-0.102756 0.74747,-0.07339 0.74747,-0.07339 0.78068,-0.04404 0.78069,-0.01467 0.7973,-0.01467 0.81391,0.01467 0.83051,0.02937 0,0.792694 0,0.792694 -0.0332,0.807372 -0.0167,0.807374 -0.0499,0.807374 -0.0499,0.822053 -0.0499,0.822053 -0.0831,0.836733 -0.0831,0.836732 -0.0997,0.851412 -0.11628,0.866091 -0.13289,0.880772 -0.13288,0.89545 -0.16609,0.895451 -0.18273,0.924809 -0.19932,0.924809 -1.16272,0.117437 -1.09628,0.117436 -1.02984,0.117436 -0.9634,0.117437 -0.91358,0.132116 -0.86374,0.146795 -0.83051,0.161474 -0.81391,0.161475 -0.78069,0.190833 -0.78068,0.205513 -0.76407,0.220193 -0.78069,0.264232 -0.7973,0.278911 -0.83053,0.30827 -0.84712,0.352307 -0.89695,0.366989 z"
     style="fill:#fdfdb5;fill-opacity:1;fill-rule:evenodd;stroke:#898f1f;stroke-width:0.94807577;stroke-opacity:0.62234042" />
  <path
     inkscape:connector-curvature="0"
     id="path3041"
     d="m 185.92093,84.625323 -0.65977,-0.33763 -0.65977,-0.322949 -0.65977,-0.32295 -0.65978,-0.293588 -0.65977,-0.293591 -0.65977,-0.278911 -0.65977,-0.264231 -0.67477,-0.264232 -0.65977,-0.249552 -0.65978,-0.234871 -0.65977,-0.234873 -0.65977,-0.220193 -1.33454,-0.425706 -1.31955,-0.411027 -1.31954,-0.381667 -1.30455,-0.366987 -1.31955,-0.35231 -1.30455,-0.352307 -1.28956,-0.352309 -1.28955,-0.352308 -1.28956,-0.366989 -1.25956,-0.366988 0.13495,-0.455065 0.23992,-0.469744 0.32988,-0.484424 0.41986,-0.484423 0.49483,-0.484425 0.5698,-0.499104 0.62979,-0.499103 0.70475,-0.484425 0.74975,-0.499103 0.80972,-0.484424 0.8547,-0.484425 0.89969,-0.484424 0.92968,-0.455064 0.97467,-0.469745 0.97466,-0.440385 1.00465,-0.425707 1.01965,-0.425706 1.03465,-0.396347 1.01964,-0.366987 1.03465,-0.366989 1.00465,-0.337628 1.00466,-0.30827 0.97466,-0.278911 0.95967,-0.264232 0.92968,-0.220192 0.88469,-0.190834 0.83971,-0.161474 0.80973,-0.132117 0.73474,-0.08808 0.68976,-0.05872 0.61479,-0.01467 0.55481,0.02937 2.80403,1.600067 2.45916,1.394554 2.12926,1.2184 1.84437,1.056926 1.55946,0.895451 1.31955,0.763334 1.09462,0.660578 0.91468,0.528462 0.73475,0.455066 0.5848,0.381668 0.46484,0.322949 0.37487,0.278911 0.31489,0.264231 0.26991,0.234873 0.23992,0.249551 0.25491,0.264231 -0.80972,0.102756 -0.80972,0.117437 -0.77974,0.146796 -0.74974,0.146794 -0.74974,0.176155 -0.71975,0.190833 -0.70476,0.205513 -0.68976,0.205514 -0.67477,0.234871 -0.65977,0.234873 -0.64478,0.249553 -0.64478,0.264231 -0.62978,0.264231 -0.62978,0.264231 -0.61479,0.278911 -0.59979,0.293591 -1.21458,0.5725 -1.21459,0.572502 -1.21458,0.587181 -1.21458,0.5725 -0.62978,0.264233 -0.62979,0.27891 -0.64477,0.264232 -0.64478,0.249551 -0.65977,0.249552 -0.65978,0.234872 -0.68976,0.234872 -0.70476,0.205513 z"
     style="fill:#fdfdb5;fill-opacity:1;fill-rule:evenodd;stroke:#898f1f;stroke-width:0.9007917;stroke-opacity:0.62234042" />
  <path
     inkscape:connector-curvature="0"
     id="path3043"
     d="m 220.82078,76.733911 -0.5938,-0.303014 c -4.02538,0.207469 -5.68064,0.728915 -8.91792,-0.616121 -2.08043,-0.411262 -3.83997,-2.129514 -5.65612,-3.244926 -1.78634,-1.09712 -3.62705,-1.582097 -5.93144,-3.106486 l -3.46707,-2.211576 -0.62365,-0.347515 -0.54058,-0.325337 c -0.30464,-0.16018 -0.54837,-0.417311 -0.81769,-0.636783 l -0.26414,-0.301336 -0.17005,-0.281192 1.01684,-0.175161 0.99867,-0.146783 0.99153,-0.120471 0.98442,-0.09415 0.96622,-0.06577 0.9591,-0.03947 0.94093,-0.01111 0.94677,0.02532 0.92861,0.05367 0.9124,0.09419 c 1.8022,0.17902 3.56861,0.636745 5.30696,1.221127 l 0.84621,0.318944 0.843,0.36955 0.8248,0.397913 0.81964,0.436378 0.81637,0.486988 0.80926,0.513313 0.79303,0.553811 0.78978,0.604424 0.77358,0.644922 0.77746,0.669214 0.76514,0.734 0.74699,0.762357 0.74374,0.81297 0.74048,0.863581 0.73532,0.902042 0.71909,0.942548 -0.13691,0.137793 -0.12393,0.147898 -0.13302,0.162081 z"
     style="fill:#fdfdb5;fill-opacity:1;fill-rule:evenodd;stroke:#898f1f;stroke-width:0.71304965;stroke-opacity:0.62234042"
     sodipodi:nodetypes="cccscccccccccccccccccccccccccccccccccccccc" />
  <path
     inkscape:connector-curvature="0"
     id="path3045"
     d="m 91.438492,55.82411 0.914684,0 0.944675,0 0.92968,0 0.929679,0 0.92968,0 0.944674,0 0.944675,0 0.929679,0 0.944675,0 0.944677,0 0.94467,0 0.94468,0 0.94467,0 0.94468,0 0.94467,0 0.94467,0 3.44882,-0.190834 3.02895,-0.161475 2.63909,-0.146795 2.27922,-0.117436 1.96432,-0.08808 1.66443,-0.08808 1.40951,-0.05872 1.19959,-0.05872 1.00465,-0.02936 0.8697,-0.02937 0.73475,0 0.65977,0 0.61479,0.01468 0.5848,0.01467 0.61479,0.02936 0.67476,0.02936 0.28491,1.409233 0.29989,1.467952 0.31489,1.497311 0.32989,1.541349 0.32989,1.585388 0.31489,1.600067 0.31489,1.629428 0.2849,1.658784 0.13495,0.822053 0.13496,0.836732 0.11996,0.836734 0.10496,0.836731 0.10496,0.836734 0.09,0.836732 0.09,0.836732 0.06,0.836733 0.06,0.822053 0.045,0.836733 0.03,0.822053 0,0.836733 0,0.822053 -0.015,0.807373 -0.045,0.807373 -0.06,0.807373 -1.48449,0.308271 -1.49949,0.27891 -1.51447,0.249552 -1.51448,0.234873 -1.52947,0.205512 -1.52948,0.176155 -1.54447,0.146795 -1.54446,0.132115 -1.54447,0.117435 -1.55946,0.08808 -1.55947,0.07339 -1.55946,0.04404 -1.55946,0.04404 -1.55946,0.01467 -1.55947,0 -1.55946,-0.01467 -1.55946,-0.01467 -1.55946,-0.04404 -1.54447,-0.04404 -1.54447,-0.05872 -1.54447,-0.07339 -1.544466,-0.08808 -1.529473,-0.08808 -1.514478,-0.08808 -3.013961,-0.205513 -2.983972,-0.220192 -2.938987,-0.234873 -2.879008,-0.234873 -0.254912,-0.528462 -0.239918,-0.572501 -0.179938,-0.631219 -0.149948,-0.675259 -0.119959,-0.704617 -0.08997,-0.748654 -0.05998,-0.778016 -0.02999,-0.807373 0,-0.836732 0.01499,-0.866092 0.05998,-0.880771 0.05998,-0.895449 0.08997,-0.910132 0.104964,-0.924809 0.119958,-0.939489 0.134954,-0.93949 0.149948,-0.939488 0.164943,-0.939489 0.164944,-0.93949 0.179938,-0.924809 0.37487,-1.83494 0.374871,-1.746863 0.359876,-1.673465 0.359876,-1.541349 0.314892,-1.394555 0.254912,-1.233079 0.614788,0.02937 0.599793,0.02936 0.614788,0.04404 0.599794,0.02937 0.614788,0.04404 0.614788,0.05871 0.599793,0.05872 0.614789,0.05872 z"
     style="fill:#fdfdb5;fill-opacity:1;fill-rule:evenodd;stroke:#898f1f;stroke-width:0.9007917;stroke-opacity:0.62234042" />
  <path
     inkscape:connector-curvature="0"
     id="path3047"
     d="m 75.85886,81.102239 -1.574457,-0.190834 -1.574458,-0.205513 -1.544468,-0.205514 -1.544467,-0.205513 -1.514479,-0.220193 -1.514478,-0.220193 -1.484488,-0.249552 -1.484489,-0.234872 -1.454498,-0.249551 -1.454499,-0.264231 -1.454499,-0.278911 -1.424509,-0.278911 -1.439504,-0.29359 -1.409514,-0.308271 -1.409515,-0.308269 -1.409514,-0.32295 -1.394519,-0.337628 -1.39452,-0.352309 -1.379525,-0.366988 -1.394519,-0.381667 -1.379525,-0.381668 -1.379524,-0.411027 -1.379525,-0.425705 -1.379525,-0.425706 -1.379524,-0.455066 -1.379525,-0.469743 -1.379525,-0.469746 -1.394519,-0.499104 -1.379525,-0.513782 -1.394519,-0.543142 -1.409514,-0.543142 -1.409515,-0.572502 0.149949,-0.645899 0.164943,-0.704616 0.194933,-0.733976 0.224922,-0.778015 0.254912,-0.807373 0.269907,-0.851411 0.299897,-0.851413 0.329886,-0.89545 0.344881,-0.895451 0.374871,-0.910131 0.389866,-0.924809 0.419855,-0.924809 0.43485,-0.92481 0.46484,-0.910131 0.479835,-0.910129 0.494829,-0.895451 0.52482,-0.880771 0.539814,-0.851412 0.554808,-0.836732 0.569804,-0.807374 0.599793,-0.763335 0.599794,-0.719296 0.629783,-0.689938 0.644777,-0.631219 0.659773,-0.58718 0.659773,-0.528464 0.689762,-0.469744 0.689762,-0.411026 0.719752,-0.337628 0.719752,-0.264233 0.734747,-0.190833 0.749742,-0.102757 1.004654,0.499104 1.019648,0.469745 1.034644,0.455064 1.064633,0.440385 1.064633,0.411027 1.079628,0.396348 1.109618,0.381667 1.109617,0.352308 1.124613,0.337628 1.139607,0.32295 1.139607,0.293591 1.154603,0.293591 1.169596,0.27891 1.184592,0.249552 1.184592,0.249551 1.184592,0.220193 1.199587,0.220193 1.199586,0.205513 1.199587,0.190834 1.214581,0.176155 1.214582,0.176154 1.214581,0.161474 1.229577,0.161476 1.214581,0.132114 2.444158,0.264232 2.429163,0.249552 2.429163,0.220193 2.399173,0.205512 -0.43485,3.846034 -0.389866,3.376289 -0.329886,2.935905 -0.299897,2.524876 -0.239917,2.187248 -0.194933,1.849619 -0.164943,1.570708 -0.119959,1.321158 -0.104964,1.100963 -0.05998,0.93949 -0.04498,0.807372 -0.01499,0.719298 0,0.645898 0.01499,0.631219 0.01499,0.645899 0.02999,0.704617 -0.569804,0 -0.569803,0 -0.569804,0 -0.569804,0 -0.569803,0 -0.554809,0 -0.539814,0 -0.554809,0 z"
     style="fill:#fdfdb5;fill-opacity:1;fill-rule:evenodd;stroke:#898f1f;stroke-width:0.9007917;stroke-opacity:0.62234042" />
  <path
     inkscape:connector-curvature="0"
     id="path3049"
     d="m 137.32268,80.838007 -0.26991,-2.172568 -0.23991,-1.923018 -0.20993,-1.717502 -0.20993,-1.54135 -0.17994,-1.409234 -0.17994,-1.321156 -0.19493,-1.262439 -0.17994,-1.247759 -0.20992,-1.277117 -0.22493,-1.335838 -0.25491,-1.438591 -0.2849,-1.585389 -0.32989,-1.761542 -0.35987,-1.996414 -0.41986,-2.245966 -0.47983,-2.539557 2.54912,-0.411027 2.50414,-0.396346 2.44415,-0.425706 2.41417,-0.440386 2.38418,-0.455064 2.35419,-0.484424 1.1696,-0.249553 1.16959,-0.249551 1.1696,-0.264232 1.1546,-0.27891 1.1696,-0.27891 1.1546,-0.278913 1.1696,-0.29359 1.1546,-0.308269 1.1696,-0.308271 1.16959,-0.337627 1.1846,-0.322951 1.18459,-0.352308 1.18459,-0.352309 1.19959,-0.366988 1.19958,-0.381667 1.21458,-0.396347 1.21459,-0.411026 1.24457,-0.411027 1.24457,-0.440386 1.25956,-0.440385 0.50983,1.23308 0.50982,1.2184 0.49483,1.218399 0.47984,1.203721 0.46484,1.2184 0.44984,1.20372 0.43485,1.23308 0.41986,1.23308 0.41985,1.247758 0.38987,1.277118 0.38986,1.291798 0.35988,1.321156 0.35988,1.350516 0.32988,1.379874 0.32989,1.423914 0.31489,1.467951 -1.31954,0.704617 -1.31955,0.719297 -1.30455,0.704617 -1.31955,0.719296 -1.31954,0.704617 -1.31955,0.719296 -1.30455,0.704617 -1.31954,0.719296 -1.31955,0.704616 -1.31954,0.719298 -1.31955,0.719296 -1.30455,0.719297 -1.31954,0.719296 -1.31955,0.719296 -1.31954,0.733975 -1.30456,0.719297 -1.31954,0.381668 -1.27456,0.366987 -1.27456,0.322951 -1.25957,0.322949 -1.24457,0.29359 -1.22958,0.278911 -1.21458,0.249552 -1.22957,0.249551 -1.19959,0.234873 -1.21458,0.220193 -1.21458,0.220193 -1.21458,0.205513 -1.21459,0.205512 -1.22957,0.190834 -1.22958,0.205514 -1.24457,0.190833 z"
     style="fill:#fdfdb5;fill-opacity:1;fill-rule:evenodd;stroke:#898f1f;stroke-width:0.9007917;stroke-opacity:0.62234042" />
  <path
     inkscape:connector-curvature="0"
     id="path3051"
     d="m 25.10135,67.626442 -1.469493,-1.350516 -1.259566,-1.159682 -0.554809,-0.528463 -0.509824,-0.499103 -0.224923,-0.249552 -0.224922,-0.249551 -0.209928,-0.249553 -0.179938,-0.249551 -0.194933,-0.249553 -0.164943,-0.264231 -0.149948,-0.264231 -0.149949,-0.264231 -0.134953,-0.278911 -0.119959,-0.293591 -0.104964,-0.308269 -0.104963,-0.30827 -0.07497,-0.322951 -0.07497,-0.337627 -0.05998,-0.366988 -0.05998,-0.366988 -0.02999,-0.396347 -0.02999,-0.411026 -0.01499,-0.440387 -0.01499,-0.455064 0.974664,-1.350516 0.989659,-1.350515 0.974664,-1.350517 0.974664,-1.350515 0.989659,-1.335837 0.989659,-1.335835 0.989659,-1.321156 1.004654,-1.321158 1.019648,-1.321156 1.019649,-1.306477 1.034643,-1.291797 1.049639,-1.291799 1.064633,-1.277117 1.079628,-1.262438 1.109618,-1.262439 1.124612,-1.247758 0.659773,0.954167 0.659772,0.924811 0.659773,0.954168 0.629783,0.968848 0.314891,0.513783 0.314892,0.513783 0.314891,0.543142 0.299897,0.572502 0.299897,0.587181 0.299896,0.616539 0.284902,0.645899 0.299897,0.675258 -0.584799,0.572501 -0.569803,0.587181 -0.554809,0.60186 -0.554809,0.60186 -0.524819,0.61654 -0.524819,0.631219 -0.49483,0.616539 -0.494829,0.645901 -0.49483,0.631218 -0.479834,0.645898 -0.46484,0.660579 -0.449845,0.660578 -0.449845,0.660578 -0.43485,0.675258 -0.419856,0.675258 -0.419855,0.689938 -0.419855,0.689936 -0.404861,0.689938 -0.40486,0.689938 -0.389866,0.704616 -0.779731,1.423913 -0.749742,1.423913 -0.734747,1.453274 -0.719752,1.467951 -0.719752,1.467951 -0.719752,1.482632 -0.329886,0.146795 -0.344881,0.176155 -0.329886,0.190833 -0.344882,0.190834 z"
     style="fill:#fdfdb5;fill-opacity:1;fill-rule:evenodd;stroke:#898f1f;stroke-width:0.9007917;stroke-opacity:0.62234042" />
  <path
     inkscape:connector-curvature="0"
     d="m 188.36853,35.573286 1.39108,2.0043 0.83971,0.811443 0.82472,0.825433 0.80972,0.867404 0.80972,0.881393 0.77973,0.909376 0.76474,0.923365 0.74974,0.937356 0.74974,0.965336 0.71975,0.979328 0.68977,0.979328 0.68976,1.007305 0.65977,1.0213 0.65977,1.021297 0.62979,1.049279 0.59979,1.035288 0.59979,1.04928 0.56981,1.06327 0.55481,1.063268 0.52481,1.06327 0.50983,1.077259 0.49483,1.06327 0.46484,1.06327 0.44984,1.063269 0.41986,1.063269 0.38986,1.063269 -0.82471,-0.209856 -0.82472,-0.167884 -0.82471,-0.167885 -0.79473,-0.125914 -0.79473,-0.125913 -0.77973,-0.09793 -0.77973,-0.06994 -0.76474,-0.05596 -0.74974,-0.04197 -0.74974,-0.02798 -0.74974,0 -0.73475,0 -0.73474,0.02798 -0.71976,0.04197 -0.73474,0.05596 -0.71975,0.06994 -0.71976,0.08394 -0.71975,0.09793 -0.71975,0.111924 -0.71975,0.111922 -0.71975,0.139904 -0.71976,0.139904 -0.71975,0.153895 -0.71975,0.153894 -1.46949,0.36375 -1.4695,0.37774 -1.51448,0.405722 -1.52947,0.433701 -0.37487,-1.441009 -0.38987,-1.413029 -0.38986,-1.357068 -0.41986,-1.329087 -0.43485,-1.301105 -0.43485,-1.273124 -0.47983,-1.245146 -0.47984,-1.217163 -0.25491,-0.601587 -0.2699,-0.601587 -0.25492,-0.601585 -0.2849,-0.587597 -0.26991,-0.587597 -0.29989,-0.587596 -0.2849,-0.573605 -0.3149,-0.587597 -0.29989,-0.573605 -0.32989,-0.573606 -0.32989,-0.573606 -0.32988,-0.573605 -0.34488,-0.573606 -0.35988,-0.573606 -0.35987,-0.573606 -0.37488,-0.573606 0.91469,-0.587597 0.92968,-0.573604 0.92968,-0.559616 0.91468,-0.545626 0.89969,-0.545625 c 0.43409,-0.270963 0.85287,-0.564128 1.27456,-0.853413 l 0.40486,-0.293798 c 0.26001,-0.189257 0.51044,-0.390915 0.76474,-0.587597 l 0.37487,-0.307788 c 0.23168,-0.207447 0.45035,-0.428496 0.67477,-0.643558 0.20648,-0.222791 0.40035,-0.45658 0.59979,-0.685529 l 0.26991,-0.349759 c 0.16524,-0.245515 1.38341,-1.106584 1.53759,-1.358904 0.15328,-0.255897 1.44919,-0.941921 1.56673,-1.213727 1.62691,-2.321284 1.44706,-0.844638 2.98702,0.4704 z"
     style="fill:#fdfdb5;fill-opacity:1;fill-rule:evenodd;stroke:#898f1f;stroke-width:0.87939364;stroke-opacity:0.62234042"
     id="path3053"
     sodipodi:nodetypes="cccccccccccccccccccccccccccccccccccccccccccccccccccccccccccccccccccccccccccccccccccccccccccccc" />
  <path
     inkscape:connector-curvature="0"
     id="path3055"
     d="m 87.824737,68.484049 1.079628,-0.02433 1.094623,-0.0365 1.079628,-0.01216 1.079628,-0.02433 1.079628,-0.02433 1.079628,-0.02434 1.079627,-0.01216 1.079628,-0.02433 1.094623,-0.01216 1.079628,-0.01217 1.094623,-0.01216 1.079631,-0.02433 1.09462,-0.01216 1.09462,-0.01216 1.09463,-0.01216 1.09462,-0.01216 0.13495,0 0.22492,0 -1.12461,0.01216 -1.10962,0.01216 -1.10961,0.01216 -1.10962,0.01216 -1.10962,0.02433 -1.124611,0.01216 -1.109618,0.01217 -1.109618,0.01216 -1.109617,0.02433 -1.094623,0.01216 -1.109618,0.02434 -1.109617,0.02433 -1.109618,0.02433 -1.094623,0.01216 -1.094623,0.0365 -1.109617,0.02433 z"
     style="fill:#292921;fill-opacity:1;fill-rule:evenodd;stroke:none" />
  <path
     inkscape:connector-curvature="0"
     id="path3063"
     d="m 80.627217,27.096294 0,0.132115 0,0.132116 1.469494,0.04404 1.469493,0.02936 1.484489,0.02936 1.469493,0.02936 1.469494,0.04404 1.484488,0.02936 1.484489,0.04404 1.469494,0.02936 1.484488,0.04404 1.484488,0.02936 1.484489,0.04404 1.484488,0.04403 1.484489,0.04404 1.484487,0.04404 1.48449,0.04404 1.48449,0.04403 0,0.484425 0,0.499103 0,0.513783 0,0.528462 0,3.05334 0,2.686352 0,2.319364 0,1.981735 0,1.673464 0.015,1.409235 0.015,1.145002 0.015,0.92481 0.015,0.719296 0.03,0.528462 0.015,0.396348 0.045,0.24955 0.015,0.08808 0.03,0.07339 0.015,0.04404 0.03,0.02936 0.045,0.02936 0.075,0.01467 0.13496,0.132116 0.13495,0.132115 0.06,0.557823 0.075,0.572501 0.075,0.58718 0.06,0.572501 0.09,0.587181 0.075,0.601861 0.09,0.58718 0.10496,0.60186 -0.22492,0 -0.13495,0 -1.09462,0 -1.09463,0 -1.09462,0 -1.09462,0 -1.079631,0 -1.094623,0 -1.079628,0 -1.094623,0 -1.079628,0 -1.079627,0 -1.079628,0 -1.079628,0 -1.079628,0 -1.079628,0 -1.094623,0 -1.079628,0 -1.724406,-0.117437 -1.709411,-0.102756 -1.694416,-0.117436 -1.694416,-0.102757 -1.664427,-0.102756 -1.664426,-0.117436 -1.649432,-0.132117 -1.634437,-0.132115 -1.634436,-0.132115 -1.619442,-0.161475 -1.604447,-0.176155 -1.604448,-0.176153 -1.604447,-0.220193 -1.589452,-0.234873 -1.589452,-0.249551 -1.589453,-0.278911 -0.05998,-0.675258 -0.015,-0.704616 0.02999,-0.704617 0.05998,-0.733977 0.104964,-0.748655 0.119959,-0.778015 0.164943,-0.778013 0.194933,-0.792694 0.224922,-0.792695 0.254912,-0.807373 0.269907,-0.807373 0.299897,-0.822053 0.329886,-0.822053 0.344882,-0.822053 0.359876,-0.807373 0.389865,-0.822053 0.389866,-0.807375 0.419855,-0.792693 0.419856,-0.792695 0.43485,-0.792693 0.449845,-0.763335 0.449845,-0.748656 0.464839,-0.733975 0.46484,-0.719297 0.46484,-0.704617 0.46484,-0.675258 0.479835,-0.645898 0.464839,-0.631219 0.46484,-0.60186 0.449845,-0.572502 0.46484,-0.528462 0.43485,-0.513784 1.079628,0.102757 1.094623,0.102756 1.094623,0.102757 1.109617,0.08808 1.109618,0.102757 1.109618,0.102756 1.109617,0.102757 1.109618,0.08808 z"
     style="fill:#fdfdb5;fill-opacity:1;fill-rule:evenodd;stroke:#898f1f;stroke-width:0.9007917;stroke-opacity:0.62234042" />
  <path
     inkscape:connector-curvature="0"
     id="path3065"
     d="m 117.25959,52.301025 -1.01964,-0.04404 -1.00466,-0.02936 -1.01965,-0.02936 -1.00465,-0.02937 -1.01965,-0.04404 -1.00465,-0.02936 -1.01965,-0.02936 -1.00466,-0.02936 -0.13495,-0.998207 -0.11996,-0.983527 -0.11996,-0.998208 -0.10496,-0.983528 -0.11996,-0.998207 -0.10496,-0.983529 -0.09,-0.998205 -0.10497,-0.983529 -0.03,-0.778014 -0.03,-0.778015 -0.03,-0.778014 -0.03,-0.778014 -0.03,-0.778014 -0.03,-0.763335 -0.015,-0.778015 -0.015,-0.778015 -0.03,-0.763334 -0.015,-0.778015 -0.015,-0.763335 -0.03,-0.778015 -0.015,-0.763335 -0.015,-0.763335 -0.015,-0.763335 -0.015,-0.763334 0,-0.587181 0,-0.60186 0,-0.58718 0,-0.587182 0,-0.58718 0,-0.572501 0,-0.572501 0,-0.572501 2.26422,-0.220193 2.26422,-0.234872 2.26422,-0.220193 2.26422,-0.234873 2.26422,-0.220193 2.27921,-0.220192 2.26422,-0.220193 2.27922,-0.220193 2.26422,-0.220193 2.27921,-0.220193 2.27922,-0.205513 2.27921,-0.220192 2.27921,-0.220193 2.27922,-0.205513 2.26422,-0.220193 2.27921,-0.220193 0.80972,1.394554 0.77974,1.365196 0.76473,1.350515 0.74974,1.335836 0.71976,1.321157 0.68976,1.321156 0.67477,1.335837 0.65977,1.350515 0.31489,0.675259 0.2999,0.689936 0.29989,0.689938 0.2999,0.704617 0.2849,0.704616 0.2849,0.704617 0.26991,0.733975 0.26991,0.733977 0.25491,0.733976 0.23992,0.763335 0.25491,0.763335 0.22492,0.792694 0.22492,0.792694 0.20993,0.807373 0.20993,0.822053 0.20993,0.851412 -0.56981,0.381667 -0.65977,0.366989 -0.74974,0.352308 -0.83971,0.337629 -0.92968,0.322949 -1.00466,0.30827 -1.07962,0.27891 -1.12462,0.278912 -1.19958,0.264231 -1.24457,0.234872 -1.28956,0.234873 -1.31954,0.220192 -1.36453,0.205513 -1.39452,0.205513 -1.39452,0.176154 -1.42451,0.176155 -1.42451,0.161476 -1.42451,0.146794 -1.42451,0.146796 -1.40951,0.132114 -2.75905,0.234873 -2.63909,0.220193 -2.45916,0.176154 -2.24922,0.161475 -1.96432,0.132115 -1.64944,0.132116 z"
     style="fill:#fdfdb5;fill-opacity:1;fill-rule:evenodd;stroke:#898f1f;stroke-width:0.9007917;stroke-opacity:0.62234042" />
  <path
     inkscape:connector-curvature="0"
     id="path3067"
     d="m 55.165991,48.777941 -1.289556,-0.572501 -1.274561,-0.572502 -1.259566,-0.557821 -1.229576,-0.5725 -1.199587,-0.587181 -1.184592,-0.587182 -0.569803,-0.30827 -0.554809,-0.308269 -0.554809,-0.322949 -0.554809,-0.322951 -0.524819,-0.322949 -0.524819,-0.352308 -0.509824,-0.337628 -0.49483,-0.366989 -0.479834,-0.366988 -0.479835,-0.381667 -0.449845,-0.396348 -0.449845,-0.411026 -0.419855,-0.425705 -0.419856,-0.425707 -0.389865,-0.455065 -0.389866,-0.469744 -0.359876,-0.484425 -0.344881,-0.499102 -0.344881,-0.513785 -0.299897,-0.543141 0.04498,-0.880771 0.119959,-0.880771 0.209928,-0.866092 0.269907,-0.836733 0.359876,-0.822053 0.419855,-0.807373 0.479835,-0.792694 0.554809,-0.778014 0.599793,-0.748656 0.644778,-0.733975 0.704757,-0.719297 0.749742,-0.689937 0.779731,-0.675258 0.824716,-0.645899 0.83971,-0.631219 0.884695,-0.601861 0.89969,-0.58718 0.92968,-0.572502 0.92968,-0.528462 0.959669,-0.513783 0.959669,-0.499103 0.95967,-0.469745 0.974664,-0.440386 0.959669,-0.411026 0.944675,-0.396347 0.944674,-0.352309 0.92968,-0.337628 0.89969,-0.32295 0.884695,-0.27891 0.854705,-0.249552 0.824716,-0.220194 0.779731,-0.205513 0.149949,0.381668 0.179938,0.381668 0.194933,0.381667 0.239917,0.396347 0.269907,0.411026 0.284902,0.396347 0.164943,0.190834 0.164943,0.190834 0.164943,0.190833 0.194933,0.190834 0.179938,0.176155 0.194933,0.190833 0.209928,0.176154 0.209927,0.161475 0.224923,0.161475 0.224922,0.161474 0.239918,0.161475 0.254912,0.132116 0.254912,0.146795 0.254912,0.132116 0.284902,0.117436 0.269907,0.102757 0.299896,0.117436 0.299897,0.08808 0.299897,0.07339 0.314891,0.07339 -0.764736,1.482631 -0.764737,1.467952 -0.734746,1.467953 -0.734747,1.467951 -0.719752,1.453272 -0.704757,1.467952 -0.689763,1.467952 -0.674767,1.482631 -0.674768,1.482631 -0.644778,1.511991 -0.629783,1.51199 -0.629783,1.541349 -0.599793,1.570708 -0.599793,1.585389 -0.569804,1.614747 -0.569803,1.658785 -0.479835,0.07339 -0.46484,0.102757 -0.479835,0.132116 -0.464839,0.132116 z"
     style="fill:#fdfdb5;fill-opacity:1;fill-rule:evenodd;stroke:#898f1f;stroke-width:0.9007917;stroke-opacity:0.62234042" />
  <path
     inkscape:connector-curvature="0"
     id="path3073"
     d="m 183.20731,31.053022 c -0.44117,0.810611 -1.30723,1.12788 -1.82981,1.577438 l -0.67477,0.587182 -0.67477,0.58718 -0.68976,0.572502 -0.70475,0.55782 -0.70476,0.543143 -0.70476,0.543142 -0.71975,0.528463 -0.71975,0.513782 -0.71975,0.513784 -0.73475,0.499104 -0.73475,0.484423 -0.74974,0.484424 -0.74974,0.455066 -0.74974,0.455065 -0.76474,0.455065 -0.76474,0.425705 -0.77973,0.425707 -0.77973,0.396346 -0.77973,0.411027 -0.77973,0.381668 -0.79473,0.366988 -0.79472,0.366988 -0.79473,0.352308 -0.80972,0.337629 -0.80972,0.322949 -0.80972,0.30827 -0.82472,0.293591 -0.80972,0.29359 -0.83971,0.264232 -0.82472,0.264231 -0.82471,0.249551 -0.5848,-1.688144 -0.5698,-1.644107 -0.5848,-1.600066 -0.5848,-1.570709 -0.59979,-1.556029 -0.5998,-1.511991 -0.61479,-1.482631 -0.62978,-1.467951 -0.62978,-1.453272 -0.64478,-1.423913 -0.65977,-1.423914 -0.67477,-1.409233 -0.70476,-1.394555 -0.70475,-1.394553 -0.73475,-1.379875 -0.74974,-1.394555 1.49948,-0.616539 1.30455,-0.543142 1.1546,-0.484425 0.98966,-0.425706 0.8847,-0.381667 0.74974,-0.337629 0.67477,-0.30827 0.59979,-0.278911 0.53981,-0.264231 0.49483,-0.278911 0.47984,-0.264231 0.47983,-0.278911 0.49483,-0.308269 0.50983,-0.337629 0.5698,-0.366989 0.64478,-0.425706 0.62978,0.02936 0.65977,0.07339 0.67477,0.132116 0.71975,0.176154 0.71975,0.205513 0.74975,0.264231 0.76473,0.293591 0.79473,0.337629 0.79473,0.366987 0.80972,0.411026 0.80972,0.425708 0.83971,0.469744 0.82471,0.484424 0.83971,0.513783 0.83972,0.543142 0.82471,0.557822 0.83971,0.572501 0.82472,0.572501 0.82471,0.601861 0.80972,0.616539 0.80973,0.61654 0.77973,0.631219 0.77973,0.616539 0.76473,0.63122 0.73475,0.631219 0.71975,0.63122 0.68977,0.616539 0.67476,0.61654 0.64478,0.60186 0.61479,0.60186 c 0.37152,0.373108 0.50212,0.695645 0.84015,1.035523 z"
     style="fill:#fdfdb5;fill-opacity:1;fill-rule:evenodd;stroke:#898f1f;stroke-width:0.9007917;stroke-opacity:0.62234042"
     sodipodi:nodetypes="cccccccccccccccccccccccccccccccccccccccccccccccccccccccccccccccccccccccccccccccccccccccccccccccc" />
  <path
     inkscape:connector-curvature="0"
     id="path3081"
     d="m 98.006228,24.718211 -2.864013,-0.08808 -2.144261,-0.07339 -0.854705,-0.02936 -0.704757,-0.02936 -0.599794,-0.04403 -0.479834,-0.04404 -0.389866,-0.04404 -0.299897,-0.04403 -0.254912,-0.05872 -0.179938,-0.05872 -0.149948,-0.07339 -0.134954,-0.08808 -0.104964,-0.08808 -0.119958,-0.117436 0.46484,-1.54135 0.449845,-1.482631 0.239917,-0.704617 0.239917,-0.689937 0.239918,-0.675258 0.239917,-0.660578 0.269907,-0.631219 0.254912,-0.61654 0.284902,-0.61654 0.284902,-0.587181 0.299896,-0.5725 0.314892,-0.557822 0.344881,-0.543142 0.344881,-0.528463 0.359876,-0.499103 0.389866,-0.499104 0.40486,-0.484424 0.419856,-0.469745 0.449845,-0.440386 0.464839,-0.440385 0.509825,-0.425706 0.509824,-0.4110268 0.554809,-0.3963466 0.584798,-0.381667 0.599794,-0.3816679 0.644778,-0.352308 0.674767,-0.3523089 0.704759,-0.3376293 0.73475,-0.3229482 0.77973,-0.3082704 1.42451,-0.073393 1.36453,-0.058715 1.30455,-0.044044 1.25956,-0.044044 1.19959,-0.014679 1.1546,0 1.09462,0.014679 1.06464,0.058715 1.00465,0.073393 0.95967,0.1027565 0.91468,0.1321156 0.8697,0.1761548 0.83972,0.2201925 0.79472,0.2495516 0.74974,0.29359 0.70476,0.3523088 0.68976,0.3816679 0.64478,0.4550646 0.59979,0.4991038 0.5848,0.543142 0.53982,0.616539 0.50982,0.689937 0.49483,0.733976 0.46484,0.807374 0.43485,0.880771 0.40486,0.954169 0.38987,1.042245 0.37487,1.100964 0.34488,1.18904 0.32988,1.277119 0.2999,1.365195 0.2999,1.438592 -1.7544,0.146796 -1.75439,0.161475 -1.7394,0.146794 -1.7544,0.146796 -1.75439,0.146795 -1.73941,0.146795 -1.7394,0.146795 -1.7394,0.146796 -1.75439,0.146795 -1.7394,0.161474 -1.7394,0.146795 -1.7394,0.146796 -1.7394,0.146795 -1.73941,0.146795 -1.724401,0.146796 -1.739401,0.146794 z"
     style="fill:#fdfdb5;fill-opacity:1;fill-rule:evenodd;stroke:#898f1f;stroke-width:0.9007917;stroke-opacity:0.62234042" />
  <path
     inkscape:connector-curvature="0"
     id="path3083"
     d="M 79.097744,24.45398 78.078095,24.233788 76.968478,24.028275 75.783886,23.808082 74.569304,23.602568 73.339728,23.367696 72.095157,23.103465 71.495364,22.956669 70.89557,22.795195 70.295777,22.63372 69.725973,22.457566 69.15617,22.266732 l -0.539814,-0.220193 -0.524819,-0.220192 -0.49483,-0.234873 -0.46484,-0.264231 -0.43485,-0.278911 -0.40486,-0.308269 -0.374871,-0.32295 -0.329886,-0.337629 -0.299897,-0.381667 -0.254912,-0.396348 -0.194933,-0.425705 -0.164943,-0.455065 -0.104964,-0.484425 -0.04498,-0.513783 0,-0.543142 1.454499,-0.763335 1.529473,-0.778015 1.604447,-0.807373 1.679422,-0.807373 0.8697,-0.396347 0.8697,-0.396347 0.884695,-0.396347 0.89969,-0.381667 0.914685,-0.381668 0.914685,-0.352308 0.914685,-0.366988 0.929679,-0.337629 0.92968,-0.32295 0.944675,-0.308269 0.929679,-0.2935911 0.944675,-0.2789105 0.929679,-0.2495515 0.944675,-0.2348729 0.929679,-0.205513 0.92968,-0.1908335 0.914685,-0.1614746 0.92968,-0.1174368 0.899689,-0.1027557 0.89969,-0.073393 0.884696,-0.029357 0.884695,0 0.8697,0.029357 0.854706,0.073393 -0.374871,0.4403851 -0.344881,0.440385 -0.344882,0.4550654 -0.329886,0.4403861 -0.314891,0.455064 -0.299897,0.455066 -0.299897,0.469744 -0.284902,0.469745 -0.269907,0.455064 -0.269907,0.484425 -0.254912,0.469744 -0.254912,0.484424 -0.494829,0.968849 -0.46484,0.983527 -0.43485,0.998207 -0.449845,1.012887 -0.419856,1.027566 -0.419855,1.042246 -0.43485,1.056926 -0.43485,1.071604 -0.449845,1.071605 -0.46484,1.100964 -0.674768,0.04403 -0.674767,0.02936 -0.674768,0.02936 -0.674767,0.04404 -0.674768,0.04403 -0.674767,0.04403 -0.674767,0.05872 -0.674768,0.05872 z"
     style="fill:#fdfdb5;fill-opacity:1;fill-rule:evenodd;stroke:#898f1f;stroke-width:0.9007917;stroke-opacity:0.62234042" />
  <path
     inkscape:connector-curvature="0"
     id="path3085"
     d="m 129.49538,21.811667 -0.32989,-0.954168 -0.34488,-0.954169 -0.32989,-0.968848 -0.34488,-0.954169 -0.32988,-0.954169 -0.34488,-0.954168 -0.32989,-0.968849 -0.34488,-0.954168 -1.48449,-1.952376 -1.10962,-1.467951 -0.43485,-0.587181 -0.37487,-0.4991041 -0.2999,-0.4110261 -0.22492,-0.3523088 -0.19493,-0.29359 -0.13495,-0.2348729 -0.10497,-0.205513 -0.06,-0.176154 -0.045,-0.1467951 -0.015,-0.146795 -0.015,-0.1467958 0,-0.1614745 2.11427,0.2055138 2.11427,0.2201925 2.08428,0.2495516 2.08428,0.2642318 2.08429,0.2935892 2.06928,0.3082704 2.06929,0.3229498 2.06929,0.3669876 2.08428,0.381667 2.08428,0.4110266 2.09928,0.440385 2.09927,0.469746 2.11428,0.513782 2.14426,0.543142 2.15925,0.572502 2.18925,0.601859 0,0.278911 0,0.308271 0,0.32295 0,0.322949 -0.80972,0.381668 -0.80972,0.352308 -0.80972,0.352308 -0.80973,0.337629 -0.82471,0.322949 -0.80972,0.32295 -0.82472,0.308269 -0.82471,0.29359 -0.82472,0.278912 -0.82472,0.264231 -0.82471,0.264231 -0.83971,0.249552 -0.82472,0.249552 -0.83971,0.234873 -0.82471,0.220192 -0.83972,0.220193 -0.83971,0.205513 -0.83971,0.190834 -0.82471,0.190833 -0.83971,0.190834 -0.83971,0.161475 -0.83971,0.176154 -0.82472,0.146795 -0.83971,0.161475 -1.66443,0.278911 -1.64943,0.249551 -1.64943,0.234873 -1.64943,0.205513 z"
     style="fill:#fdfdb5;fill-opacity:1;fill-rule:evenodd;stroke:#898f1f;stroke-width:0.9007917;stroke-opacity:0.62234042" />
</svg>
